{
    "accessors" : [
        {
            "bufferView" : 0, 
            "componentType" : 5121, 
            "count" : 336, 
            "max" : [
                127
            ], 
            "min" : [
                0
            ], 
            "type" : "SCALAR"
        }, 
        {
            "bufferView" : 1, 
            "componentType" : 5126, 
            "count" : 128, 
            "max" : [
                0.19872699677944183, 
                0.06852299720048904, 
                0.475722998380661
            ], 
            "min" : [
                -0.19872699677944183, 
                -0.22218599915504456, 
                0.23952899873256683
            ], 
            "type" : "VEC3"
        }, 
        {
            "bufferView" : 2, 
            "componentType" : 5126, 
            "count" : 128, 
            "max" : [
                0.9981078505516052, 
                0.9957884550094604, 
                0.9699087738990784
            ], 
            "min" : [
                -0.9981078505516052, 
                -0.713736355304718, 
                -0.9351176619529724
            ], 
            "type" : "VEC3"
        }, 
        {
            "bufferView" : 3, 
            "componentType" : 5126, 
            "count" : 128, 
            "max" : [
                0.9866905808448792, 
                0.4947029948234558, 
                0.05875148996710777, 
                1.0
            ], 
            "min" : [
                -0.9866905808448792, 
                -0.8032760620117188, 
                -0.9315140843391418, 
                1.0
            ], 
            "type" : "VEC4"
        }, 
        {
            "bufferView" : 4, 
            "componentType" : 5126, 
            "count" : 128, 
            "max" : [
                0.17409999668598175, 
                0.5168000161647797
            ], 
            "min" : [
                0.00930000003427267, 
                0.24239999055862427
            ], 
            "type" : "VEC2"
        }, 
        {
            "bufferView" : 5, 
            "componentType" : 5121, 
            "count" : 384, 
            "max" : [
                123
            ], 
            "min" : [
                0
            ], 
            "type" : "SCALAR"
        }, 
        {
            "bufferView" : 6, 
            "componentType" : 5126, 
            "count" : 124, 
            "max" : [
                0.10637500137090683, 
                0.24831700325012207, 
                -0.6560720205307007
            ], 
            "min" : [
                -0.10637500137090683, 
                0.1631300002336502, 
                -0.7449650168418884
            ], 
            "type" : "VEC3"
        }, 
        {
            "bufferView" : 7, 
            "componentType" : 5126, 
            "count" : 124, 
            "max" : [
                0.9901120066642761, 
                0.9058198928833008, 
                0.9669484496116638
            ], 
            "min" : [
                -0.9901120066642761, 
                -0.9139072895050049, 
                -0.9149754047393799
            ], 
            "type" : "VEC3"
        }, 
        {
            "bufferView" : 8, 
            "componentType" : 5126, 
            "count" : 124, 
            "max" : [
                0.9239516854286194, 
                -0.37804585695266724, 
                0.28583043813705444, 
                1.0
            ], 
            "min" : [
                -0.9239516854286194, 
                -0.9964675307273865, 
                -0.384520947933197, 
                1.0
            ], 
            "type" : "VEC4"
        }, 
        {
            "bufferView" : 9, 
            "componentType" : 5126, 
            "count" : 124, 
            "max" : [
                0.3564999997615814, 
                0.36399996280670166
            ], 
            "min" : [
                0.2507999837398529, 
                0.1759999394416809
            ], 
            "type" : "VEC2"
        }, 
        {
            "bufferView" : 10, 
            "componentType" : 5123, 
            "count" : 3660, 
            "max" : [
                857
            ], 
            "min" : [
                0
            ], 
            "type" : "SCALAR"
        }, 
        {
            "bufferView" : 11, 
            "componentType" : 5126, 
            "count" : 858, 
            "max" : [
                0.866877019405365, 
                0.09866870194673538, 
                1.0
            ], 
            "min" : [
                -0.866877019405365, 
                -0.5560759902000427, 
                -0.4263029992580414
            ], 
            "type" : "VEC3"
        }, 
        {
            "bufferView" : 12, 
            "componentType" : 5126, 
            "count" : 858, 
            "max" : [
                0.9988097548484802, 
                0.9978637099266052, 
                0.9869075417518616
            ], 
            "min" : [
                -0.9988097548484802, 
                -0.9878841638565063, 
                -0.9960020780563354
            ], 
            "type" : "VEC3"
        }, 
        {
            "bufferView" : 13, 
            "componentType" : 5126, 
            "count" : 858, 
            "max" : [
                0.9883675575256348, 
                0.9977073669433594, 
                0.9695125222206116, 
                1.0
            ], 
            "min" : [
                -0.9883675575256348, 
                -0.9997225999832153, 
                -0.9810176491737366, 
                1.0
            ], 
            "type" : "VEC4"
        }, 
        {
            "bufferView" : 14, 
            "componentType" : 5126, 
            "count" : 858, 
            "max" : [
                0.6082000136375427, 
                0.9953000000678003
            ], 
            "min" : [
                0.013399999588727951, 
                0.36809998750686646
            ], 
            "type" : "VEC2"
        }, 
        {
            "bufferView" : 15, 
            "componentType" : 5123, 
            "count" : 11952, 
            "max" : [
                2467
            ], 
            "min" : [
                0
            ], 
            "type" : "SCALAR"
        }, 
        {
            "bufferView" : 16, 
            "componentType" : 5126, 
            "count" : 2468, 
            "max" : [
                0.34735599160194397, 
                0.5560759902000427, 
                0.8481899499893188
            ], 
            "min" : [
                -0.34735599160194397, 
                -0.37174099683761597, 
                -1.0
            ], 
            "type" : "VEC3"
        }, 
        {
            "bufferView" : 17, 
            "componentType" : 5126, 
            "count" : 2468, 
            "max" : [
                0.99951171875, 
                0.9938352704048157, 
                0.9950254559516907
            ], 
            "min" : [
                -0.99951171875, 
                -0.9987182021141052, 
                -0.9967039823532104
            ], 
            "type" : "VEC3"
        }, 
        {
            "bufferView" : 18, 
            "componentType" : 5126, 
            "count" : 2468, 
            "max" : [
                0.9997344613075256, 
                0.998698890209198, 
                0.9786790609359741, 
                1.0
            ], 
            "min" : [
                -0.9997344017028809, 
                -0.9995198845863342, 
                -0.9998117685317993, 
                1.0
            ], 
            "type" : "VEC4"
        }, 
        {
            "bufferView" : 19, 
            "componentType" : 5126, 
            "count" : 2468, 
            "max" : [
                0.982699990272522, 
                0.9807000011205673
            ], 
            "min" : [
                0.31029999256134033, 
                0.010800004005432129
            ], 
            "type" : "VEC2"
        }, 
        {
            "bufferView" : 20, 
            "componentType" : 5121, 
            "count" : 660, 
            "max" : [
                241
            ], 
            "min" : [
                0
            ], 
            "type" : "SCALAR"
        }, 
        {
            "bufferView" : 21, 
            "componentType" : 5126, 
            "count" : 242, 
            "max" : [
                0.6976460218429565, 
                0.0681523010134697, 
                -0.0888620987534523
            ], 
            "min" : [
                -0.6976460218429565, 
                -0.33344098925590515, 
                -0.4874289929866791
            ], 
            "type" : "VEC3"
        }, 
        {
            "bufferView" : 22, 
            "componentType" : 5126, 
            "count" : 242, 
            "max" : [
                0.9882198572158813, 
                0.9768669605255127, 
                0.9927670955657959
            ], 
            "min" : [
                -0.9882198572158813, 
                -0.9195227026939392, 
                -0.9772636890411377
            ], 
            "type" : "VEC3"
        }, 
        {
            "bufferView" : 23, 
            "componentType" : 5126, 
            "count" : 242, 
            "max" : [
                0.9905438423156738, 
                0.8770761489868164, 
                0.9925453662872314, 
                1.0
            ], 
            "min" : [
                -0.9905438423156738, 
                -0.9480909109115601, 
                -0.9662644267082214, 
                1.0
            ], 
            "type" : "VEC4"
        }, 
        {
            "bufferView" : 24, 
            "componentType" : 5126, 
            "count" : 242, 
            "max" : [
                0.9911999702453613, 
                0.8563999980688095
            ], 
            "min" : [
                0.7562999725341797, 
                0.1349000334739685
            ], 
            "type" : "VEC2"
        }, 
        {
            "bufferView" : 25, 
            "componentType" : 5121, 
            "count" : 252, 
            "max" : [
                93
            ], 
            "min" : [
                0
            ], 
            "type" : "SCALAR"
        }, 
        {
            "bufferView" : 26, 
            "componentType" : 5126, 
            "count" : 94, 
            "max" : [
                0.4645729959011078, 
                0.2227730005979538, 
                -0.09225980192422867
            ], 
            "min" : [
                -0.4645729959011078, 
                -0.22499699890613556, 
                -0.45048800110816956
            ], 
            "type" : "VEC3"
        }, 
        {
            "bufferView" : 27, 
            "componentType" : 5126, 
            "count" : 94, 
            "max" : [
                0.9813226461410522, 
                0.8666341304779053, 
                0.983367383480072
            ], 
            "min" : [
                -0.9813226461410522, 
                -0.9121372103691101, 
                -0.981780469417572
            ], 
            "type" : "VEC3"
        }, 
        {
            "bufferView" : 28, 
            "componentType" : 5126, 
            "count" : 94, 
            "max" : [
                0.9781590104103088, 
                0.47762981057167053, 
                0.7136482000350952, 
                1.0
            ], 
            "min" : [
                -0.9781590104103088, 
                -0.9927085041999817, 
                -0.987075924873352, 
                1.0
            ], 
            "type" : "VEC4"
        }, 
        {
            "bufferView" : 29, 
            "componentType" : 5126, 
            "count" : 94, 
            "max" : [
                0.24239999055862427, 
                0.3303999900817871
            ], 
            "min" : [
                0.01850000023841858, 
                0.01530003547668457
            ], 
            "type" : "VEC2"
        }
    ], 
    "asset" : {
        "generator" : "Khronos Blender glTF 2.0 exporter", 
        "version" : "2.0"
    }, 
    "bufferViews" : [
        {
            "buffer" : 0, 
            "byteLength" : 336, 
            "byteOffset" : 0, 
            "target" : 34963
        }, 
        {
            "buffer" : 0, 
            "byteLength" : 1536, 
            "byteOffset" : 336, 
            "target" : 34962
        }, 
        {
            "buffer" : 0, 
            "byteLength" : 1536, 
            "byteOffset" : 1872, 
            "target" : 34962
        }, 
        {
            "buffer" : 0, 
            "byteLength" : 2048, 
            "byteOffset" : 3408, 
            "target" : 34962
        }, 
        {
            "buffer" : 0, 
            "byteLength" : 1024, 
            "byteOffset" : 5456, 
            "target" : 34962
        }, 
        {
            "buffer" : 0, 
            "byteLength" : 384, 
            "byteOffset" : 6480, 
            "target" : 34963
        }, 
        {
            "buffer" : 0, 
            "byteLength" : 1488, 
            "byteOffset" : 6864, 
            "target" : 34962
        }, 
        {
            "buffer" : 0, 
            "byteLength" : 1488, 
            "byteOffset" : 8352, 
            "target" : 34962
        }, 
        {
            "buffer" : 0, 
            "byteLength" : 1984, 
            "byteOffset" : 9840, 
            "target" : 34962
        }, 
        {
            "buffer" : 0, 
            "byteLength" : 992, 
            "byteOffset" : 11824, 
            "target" : 34962
        }, 
        {
            "buffer" : 0, 
            "byteLength" : 7320, 
            "byteOffset" : 12816, 
            "target" : 34963
        }, 
        {
            "buffer" : 0, 
            "byteLength" : 10296, 
            "byteOffset" : 20136, 
            "target" : 34962
        }, 
        {
            "buffer" : 0, 
            "byteLength" : 10296, 
            "byteOffset" : 30432, 
            "target" : 34962
        }, 
        {
            "buffer" : 0, 
            "byteLength" : 13728, 
            "byteOffset" : 40728, 
            "target" : 34962
        }, 
        {
            "buffer" : 0, 
            "byteLength" : 6864, 
            "byteOffset" : 54456, 
            "target" : 34962
        }, 
        {
            "buffer" : 0, 
            "byteLength" : 23904, 
            "byteOffset" : 61320, 
            "target" : 34963
        }, 
        {
            "buffer" : 0, 
            "byteLength" : 29616, 
            "byteOffset" : 85224, 
            "target" : 34962
        }, 
        {
            "buffer" : 0, 
            "byteLength" : 29616, 
            "byteOffset" : 114840, 
            "target" : 34962
        }, 
        {
            "buffer" : 0, 
            "byteLength" : 39488, 
            "byteOffset" : 144456, 
            "target" : 34962
        }, 
        {
            "buffer" : 0, 
            "byteLength" : 19744, 
            "byteOffset" : 183944, 
            "target" : 34962
        }, 
        {
            "buffer" : 0, 
            "byteLength" : 660, 
            "byteOffset" : 203688, 
            "target" : 34963
        }, 
        {
            "buffer" : 0, 
            "byteLength" : 2904, 
            "byteOffset" : 204348, 
            "target" : 34962
        }, 
        {
            "buffer" : 0, 
            "byteLength" : 2904, 
            "byteOffset" : 207252, 
            "target" : 34962
        }, 
        {
            "buffer" : 0, 
            "byteLength" : 3872, 
            "byteOffset" : 210156, 
            "target" : 34962
        }, 
        {
            "buffer" : 0, 
            "byteLength" : 1936, 
            "byteOffset" : 214028, 
            "target" : 34962
        }, 
        {
            "buffer" : 0, 
            "byteLength" : 252, 
            "byteOffset" : 215964, 
            "target" : 34963
        }, 
        {
            "buffer" : 0, 
            "byteLength" : 1128, 
            "byteOffset" : 216216, 
            "target" : 34962
        }, 
        {
            "buffer" : 0, 
            "byteLength" : 1128, 
            "byteOffset" : 217344, 
            "target" : 34962
        }, 
        {
            "buffer" : 0, 
            "byteLength" : 1504, 
            "byteOffset" : 218472, 
            "target" : 34962
        }, 
        {
            "buffer" : 0, 
            "byteLength" : 752, 
            "byteOffset" : 219976, 
            "target" : 34962
        }
    ], 
    "buffers" : [
        {
            "byteLength" : 220728, 
            "uri" : "mech.bin"
        }
    ], 
    "materials" : [
        {
            "alphaMode" : "BLEND", 
            "name" : "default", 
            "pbrMetallicRoughness" : {
                "baseColorFactor" : [
                    0.5880000202059747, 
                    0.5880000202059747, 
                    0.5880000202059747, 
                    0.0
                ], 
                "metallicFactor" : 0.0
            }
        }
    ], 
    "meshes" : [
        {
            "name" : "meshId2_name", 
            "primitives" : [
                {
                    "attributes" : {
                        "NORMAL" : 2, 
                        "POSITION" : 1, 
                        "TANGENT" : 3, 
                        "TEXCOORD_0" : 4
                    }, 
                    "indices" : 0, 
                    "material" : 0
                }
            ]
        }, 
        {
            "name" : "meshId1_name", 
            "primitives" : [
                {
                    "attributes" : {
                        "NORMAL" : 7, 
                        "POSITION" : 6, 
                        "TANGENT" : 8, 
                        "TEXCOORD_0" : 9
                    }, 
                    "indices" : 5, 
                    "material" : 0
                }
            ]
        }, 
        {
            "name" : "meshId4_name", 
            "primitives" : [
                {
                    "attributes" : {
                        "NORMAL" : 12, 
                        "POSITION" : 11, 
                        "TANGENT" : 13, 
                        "TEXCOORD_0" : 14
                    }, 
                    "indices" : 10, 
                    "material" : 0
                }
            ]
        }, 
        {
            "name" : "meshId0_name", 
            "primitives" : [
                {
                    "attributes" : {
                        "NORMAL" : 17, 
                        "POSITION" : 16, 
                        "TANGENT" : 18, 
                        "TEXCOORD_0" : 19
                    }, 
                    "indices" : 15, 
                    "material" : 0
                }
            ]
        }, 
        {
            "name" : "meshId3_name", 
            "primitives" : [
                {
                    "attributes" : {
                        "NORMAL" : 22, 
                        "POSITION" : 21, 
                        "TANGENT" : 23, 
                        "TEXCOORD_0" : 24
                    }, 
                    "indices" : 20, 
                    "material" : 0
                }
            ]
        }, 
        {
            "name" : "meshId5_name", 
            "primitives" : [
                {
                    "attributes" : {
                        "NORMAL" : 27, 
                        "POSITION" : 26, 
                        "TANGENT" : 28, 
                        "TEXCOORD_0" : 29
                    }, 
                    "indices" : 25, 
                    "material" : 0
                }
            ]
        }
    ], 
    "nodes" : [
        {
            "name" : "arm01_low", 
            "rotation" : [
                0.7071068286895752, 
                0.0, 
                -0.0, 
                0.7071067094802856
            ]
        }, 
        {
            "name" : "arm02_low", 
            "rotation" : [
                0.7071068286895752, 
                0.0, 
                -0.0, 
                0.7071067094802856
            ]
        }, 
        {
            "name" : "arm03_low", 
            "rotation" : [
                0.7071068286895752, 
                0.0, 
                -0.0, 
                0.7071067094802856
            ]
        }, 
        {
            "name" : "body01_low", 
            "rotation" : [
                0.7071068286895752, 
                0.0, 
                -0.0, 
                0.7071067094802856
            ]
        }, 
        {
            "name" : "body02_low", 
            "rotation" : [
                0.7071068286895752, 
                0.0, 
                -0.0, 
                0.7071067094802856
            ]
        }, 
        {
            "name" : "Camera", 
            "rotation" : [
                0.483536034822464, 
                0.33687159419059753, 
                -0.20870360732078552, 
                0.7804827094078064
            ], 
            "translation" : [
                7.481131553649902, 
                5.34366512298584, 
                6.5076398849487305
            ]
        }, 
        {
            "name" : "ear01_low", 
            "rotation" : [
                0.7071068286895752, 
                0.0, 
                -0.0, 
                0.7071067094802856
            ]
        }, 
        {
            "mesh" : 2, 
            "name" : "g arm01_low", 
            "rotation" : [
                0.7071068286895752, 
                0.0, 
                -0.0, 
                0.7071067094802856
            ]
        }, 
        {
            "mesh" : 4, 
            "name" : "g arm02_low", 
            "rotation" : [
                0.7071068286895752, 
                0.0, 
                -0.0, 
                0.7071067094802856
            ]
        }, 
        {
            "mesh" : 5, 
            "name" : "g arm03_low", 
            "rotation" : [
                0.7071068286895752, 
                0.0, 
                -0.0, 
                0.7071067094802856
            ]
        }, 
        {
            "mesh" : 3, 
            "name" : "g body01_low", 
            "rotation" : [
                0.7071068286895752, 
                0.0, 
                -0.0, 
                0.7071067094802856
            ]
        }, 
        {
            "mesh" : 0, 
            "name" : "g body02_low", 
            "rotation" : [
                0.7071068286895752, 
                0.0, 
                -0.0, 
                0.7071067094802856
            ]
        }, 
        {
            "mesh" : 1, 
            "name" : "g ear01_low", 
            "rotation" : [
                0.7071068286895752, 
                0.0, 
                -0.0, 
                0.7071067094802856
            ]
        }, 
        {
            "name" : "Lamp", 
            "rotation" : [
                0.16907575726509094, 
                0.7558802962303162, 
                -0.27217137813568115, 
                0.570947527885437
            ], 
            "scale" : [
                1.0, 
                1.0, 
                0.9999999403953552
            ], 
            "translation" : [
                4.076245307922363, 
                5.903861999511719, 
                -1.0054539442062378
            ]
        }
    ], 
    "scene" : 0, 
    "scenes" : [
        {
            "name" : "Scene", 
            "nodes" : [
                9, 
                2, 
                7, 
                0, 
                8, 
                1, 
                11, 
                4, 
                12, 
                6, 
                10, 
                3, 
                13, 
                5
            ]
        }
    ]
}
