{
    "accessors" : [
        {
            "bufferView" : 0, 
            "componentType" : 5121, 
            "count" : 78, 
            "max" : [
                51
            ], 
            "min" : [
                0
            ], 
            "type" : "SCALAR"
        }, 
        {
            "bufferView" : 1, 
            "componentType" : 5126, 
            "count" : 52, 
            "max" : [
                1.0, 
                5.0, 
                1.0
            ], 
            "min" : [
                -1.0, 
                -1.0, 
                -1.0
            ], 
            "type" : "VEC3"
        }, 
        {
            "bufferView" : 2, 
            "componentType" : 5126, 
            "count" : 52, 
            "max" : [
                1.0, 
                1.0, 
                1.0
            ], 
            "min" : [
                -1.0, 
                0.0, 
                -1.0
            ], 
            "type" : "VEC3"
        }, 
        {
            "bufferView" : 3, 
            "componentType" : 5126, 
            "count" : 52, 
            "max" : [
                1.0, 
                8.131900699481776e-07, 
                1.0, 
                1.0
            ], 
            "min" : [
                -1.0, 
                -5.435267667053267e-07, 
                -1.0, 
                1.0
            ], 
            "type" : "VEC4"
        }, 
        {
            "bufferView" : 4, 
            "componentType" : 5126, 
            "count" : 52, 
            "max" : [
                0.9749043583869934, 
                0.9998546608403558
            ], 
            "min" : [
                0.00014533915964420885, 
                0.00014525651931762695
            ], 
            "type" : "VEC2"
        }
    ], 
    "asset" : {
        "generator" : "Khronos Blender glTF 2.0 exporter", 
        "version" : "2.0"
    }, 
    "bufferViews" : [
        {
            "buffer" : 0, 
            "byteLength" : 78, 
            "byteOffset" : 0, 
            "target" : 34963
        }, 
        {
            "buffer" : 0, 
            "byteLength" : 624, 
            "byteOffset" : 80, 
            "target" : 34962
        }, 
        {
            "buffer" : 0, 
            "byteLength" : 624, 
            "byteOffset" : 704, 
            "target" : 34962
        }, 
        {
            "buffer" : 0, 
            "byteLength" : 832, 
            "byteOffset" : 1328, 
            "target" : 34962
        }, 
        {
            "buffer" : 0, 
            "byteLength" : 416, 
            "byteOffset" : 2160, 
            "target" : 34962
        }
    ], 
    "buffers" : [
        {
            "byteLength" : 2576, 
            "uri" : "Tower002.bin"
        }
    ], 
    "meshes" : [
        {
            "name" : "Cube.001", 
            "primitives" : [
                {
                    "attributes" : {
                        "NORMAL" : 2, 
                        "POSITION" : 1, 
                        "TANGENT" : 3, 
                        "TEXCOORD_0" : 4
                    }, 
                    "indices" : 0
                }
            ]
        }
    ], 
    "nodes" : [
        {
            "mesh" : 0, 
            "name" : "Cube", 
            "translation" : [
                0.0, 
                1.0, 
                -0.0
            ]
        }
    ], 
    "scene" : 0, 
    "scenes" : [
        {
            "name" : "Scene", 
            "nodes" : [
                0
            ]
        }
    ]
}
