{
    "accessors" : [
        {
            "bufferView" : 0, 
            "componentType" : 5121, 
            "count" : 156, 
            "max" : [
                105
            ], 
            "min" : [
                0
            ], 
            "type" : "SCALAR"
        }, 
        {
            "bufferView" : 1, 
            "componentType" : 5126, 
            "count" : 106, 
            "max" : [
                1.0, 
                7.0993194580078125, 
                1.0
            ], 
            "min" : [
                -1.0, 
                -1.0, 
                -1.0
            ], 
            "type" : "VEC3"
        }, 
        {
            "bufferView" : 2, 
            "componentType" : 5126, 
            "count" : 106, 
            "max" : [
                1.0, 
                1.0, 
                1.0
            ], 
            "min" : [
                -1.0, 
                0.0, 
                -1.0
            ], 
            "type" : "VEC3"
        }, 
        {
            "bufferView" : 3, 
            "componentType" : 5126, 
            "count" : 106, 
            "max" : [
                1.0, 
                0.9247720241546631, 
                1.0, 
                1.0
            ], 
            "min" : [
                -1.0, 
                -0.9247720241546631, 
                -1.0, 
                1.0
            ], 
            "type" : "VEC4"
        }, 
        {
            "bufferView" : 4, 
            "componentType" : 5126, 
            "count" : 106, 
            "max" : [
                0.9298631548881531, 
                0.9998552610486513
            ], 
            "min" : [
                0.0001425746304448694, 
                0.010343194007873535
            ], 
            "type" : "VEC2"
        }
    ], 
    "asset" : {
        "generator" : "Khronos Blender glTF 2.0 exporter", 
        "version" : "2.0"
    }, 
    "bufferViews" : [
        {
            "buffer" : 0, 
            "byteLength" : 156, 
            "byteOffset" : 0, 
            "target" : 34963
        }, 
        {
            "buffer" : 0, 
            "byteLength" : 1272, 
            "byteOffset" : 156, 
            "target" : 34962
        }, 
        {
            "buffer" : 0, 
            "byteLength" : 1272, 
            "byteOffset" : 1428, 
            "target" : 34962
        }, 
        {
            "buffer" : 0, 
            "byteLength" : 1696, 
            "byteOffset" : 2700, 
            "target" : 34962
        }, 
        {
            "buffer" : 0, 
            "byteLength" : 848, 
            "byteOffset" : 4396, 
            "target" : 34962
        }
    ], 
    "buffers" : [
        {
            "byteLength" : 5244, 
            "uri" : "Tower001.bin"
        }
    ], 
    "meshes" : [
        {
            "name" : "Cube.001", 
            "primitives" : [
                {
                    "attributes" : {
                        "NORMAL" : 2, 
                        "POSITION" : 1, 
                        "TANGENT" : 3, 
                        "TEXCOORD_0" : 4
                    }, 
                    "indices" : 0
                }
            ]
        }
    ], 
    "nodes" : [
        {
            "mesh" : 0, 
            "name" : "Cube", 
            "translation" : [
                0.0, 
                1.0, 
                -0.0
            ]
        }
    ], 
    "scene" : 0, 
    "scenes" : [
        {
            "name" : "Scene", 
            "nodes" : [
                0
            ]
        }
    ]
}
